<svg version="1.1" viewBox="0.0 0.0 520.4829396325459 315.18110236220474" fill="none" stroke="none" stroke-linecap="square" stroke-miterlimit="10" xmlns:xlink="http://www.w3.org/1999/xlink" xmlns="http://www.w3.org/2000/svg"><clipPath id="p.0"><path d="m0 0l520.4829 0l0 315.1811l-520.4829 0l0 -315.1811z" clip-rule="nonzero"/></clipPath><g clip-path="url(#p.0)"><path fill="#000000" fill-opacity="0.0" d="m0 0l520.4829 0l0 315.1811l-520.4829 0z" fill-rule="evenodd"/><path fill="#000000" fill-opacity="0.0" d="m100.708664 196.53674l28.803146 -49.826767l28.803146 49.826767z" fill-rule="evenodd"/><path stroke="#0b5394" stroke-width="2.0" stroke-linejoin="round" stroke-linecap="butt" d="m100.708664 196.53674l28.803146 -49.826767l28.803146 49.826767z" fill-rule="evenodd"/><path fill="#000000" fill-opacity="0.0" d="m390.57718 184.92804l72.86099 0l0 72.84958l-72.86099 0z" fill-rule="evenodd"/><path stroke="#0b5394" stroke-width="4.0" stroke-linejoin="round" stroke-linecap="butt" d="m390.57718 184.92804l72.86099 0l0 72.84958l-72.86099 0z" fill-rule="evenodd"/><path fill="#000000" fill-opacity="0.0" d="m463.2031 185.17316l-72.61917 72.567535" fill-rule="evenodd"/><path stroke="#0b5394" stroke-width="4.0" stroke-linejoin="round" stroke-linecap="butt" d="m463.2031 185.17316l-72.61917 72.567535" fill-rule="evenodd"/><path fill="#000000" fill-opacity="0.0" d="m390.6981 185.17316l72.61917 72.567535" fill-rule="evenodd"/><path stroke="#0b5394" stroke-width="4.0" stroke-linejoin="round" stroke-linecap="butt" d="m390.6981 185.17316l72.61917 72.567535" fill-rule="evenodd"/><path fill="#9fc5e8" d="m362.20654 166.004l0 0c0 -5.222183 4.233429 -9.455597 9.455597 -9.455597l37.83011 0l0 0c2.507782 0 4.912842 0.9962158 6.686096 2.7694702c1.7732849 1.7732697 2.7695007 4.1783447 2.7695007 6.6861267l0 37.821228c0 5.222183 -4.233429 9.455597 -9.455597 9.455597l-37.83011 0c-5.222168 0 -9.455597 -4.2334137 -9.455597 -9.455597z" fill-rule="evenodd"/><path fill="#9fc5e8" d="m435.06754 166.004l0 0c0 -5.222183 4.2333984 -9.455597 9.455566 -9.455597l37.83011 0l0 0c2.507782 0 4.912842 0.9962158 6.6861267 2.7694702c1.7732544 1.7732697 2.7694702 4.1783447 2.7694702 6.6861267l0 37.821228c0 5.222183 -4.2333984 9.455597 -9.455597 9.455597l-37.83011 0c-5.222168 0 -9.455566 -4.2334137 -9.455566 -9.455597z" fill-rule="evenodd"/><path fill="#9fc5e8" d="m362.20654 238.867l0 0c0 -5.222168 4.233429 -9.455582 9.455597 -9.455582l37.83011 0l0 0c2.507782 0 4.912842 0.99620056 6.686096 2.7694702c1.7732849 1.7732697 2.7695007 4.1783447 2.7695007 6.6861115l0 37.821228c0 5.2221985 -4.233429 9.455597 -9.455597 9.455597l-37.83011 0c-5.222168 0 -9.455597 -4.2333984 -9.455597 -9.455597z" fill-rule="evenodd"/><path fill="#9fc5e8" d="m435.06754 238.867l0 0c0 -5.222168 4.2333984 -9.455582 9.455566 -9.455582l37.83011 0l0 0c2.507782 0 4.912842 0.99620056 6.6861267 2.7694702c1.7732544 1.7732697 2.7694702 4.1783447 2.7694702 6.6861115l0 37.821228c0 5.2221985 -4.2333984 9.455597 -9.455597 9.455597l-37.83011 0c-5.222168 0 -9.455566 -4.2333984 -9.455566 -9.455597z" fill-rule="evenodd"/><path fill="#000000" fill-opacity="0.0" d="m390.57718 229.41142l0 0" fill-rule="evenodd"/><path stroke="#0b5394" stroke-width="1.0" stroke-linejoin="round" stroke-linecap="butt" d="m390.57718 229.41142l0 0" fill-rule="evenodd"/><path fill="#000000" fill-opacity="0.0" d="m435.06754 257.77762l0 0" fill-rule="evenodd"/><path stroke="#0b5394" stroke-width="1.0" stroke-linejoin="round" stroke-linecap="butt" d="m435.06754 257.77762l0 0" fill-rule="evenodd"/><path fill="#000000" fill-opacity="0.0" d="m435.06754 257.77762l0 0" fill-rule="evenodd"/><path stroke="#0b5394" stroke-width="1.0" stroke-linejoin="round" stroke-linecap="butt" d="m435.06754 257.77762l0 0" fill-rule="evenodd"/><path fill="#9fc5e8" d="m28.624672 228.53806l57.6063 0l0 57.606293l-57.6063 0z" fill-rule="evenodd"/><path stroke="#0b5394" stroke-width="2.0" stroke-linejoin="round" stroke-linecap="butt" d="m28.624672 228.53806l57.6063 0l0 57.606293l-57.6063 0z" fill-rule="evenodd"/><path fill="#000000" fill-opacity="0.0" d="m43.918636 243.7664l0 27.149612" fill-rule="evenodd"/><path stroke="#0b5394" stroke-width="2.0" stroke-linejoin="round" stroke-linecap="butt" d="m43.918636 243.7664l0 27.149612" fill-rule="evenodd"/><path fill="#000000" fill-opacity="0.0" d="m57.427822 243.7664l0 27.149612" fill-rule="evenodd"/><path stroke="#0b5394" stroke-width="2.0" stroke-linejoin="round" stroke-linecap="butt" d="m57.427822 243.7664l0 27.149612" fill-rule="evenodd"/><path fill="#000000" fill-opacity="0.0" d="m70.937004 243.7664l0 27.149612" fill-rule="evenodd"/><path stroke="#0b5394" stroke-width="2.0" stroke-linejoin="round" stroke-linecap="butt" d="m70.937004 243.7664l0 27.149612" fill-rule="evenodd"/><path fill="#9fc5e8" d="m100.708664 196.53806l57.606293 0l0 57.606308l-57.606293 0z" fill-rule="evenodd"/><path stroke="#0b5394" stroke-width="2.0" stroke-linejoin="round" stroke-linecap="butt" d="m100.708664 196.53806l57.606293 0l0 57.606308l-57.606293 0z" fill-rule="evenodd"/><path fill="#000000" fill-opacity="0.0" d="m116.002625 211.7664l0 27.149612" fill-rule="evenodd"/><path stroke="#0b5394" stroke-width="2.0" stroke-linejoin="round" stroke-linecap="butt" d="m116.002625 211.7664l0 27.149612" fill-rule="evenodd"/><path fill="#000000" fill-opacity="0.0" d="m129.51181 211.7664l0 27.149612" fill-rule="evenodd"/><path stroke="#0b5394" stroke-width="2.0" stroke-linejoin="round" stroke-linecap="butt" d="m129.51181 211.7664l0 27.149612" fill-rule="evenodd"/><path fill="#000000" fill-opacity="0.0" d="m143.021 211.7664l0 27.149612" fill-rule="evenodd"/><path stroke="#0b5394" stroke-width="2.0" stroke-linejoin="round" stroke-linecap="butt" d="m143.021 211.7664l0 27.149612" fill-rule="evenodd"/><path fill="#0b5394" d="m28.63517 130.3937l463.21262 0l0 15.370071l-463.21262 0z" fill-rule="evenodd"/><path fill="#0b5394" d="m188.15224 72.50394l0 213.63779l-15.370087 0l0 -213.63779z" fill-rule="evenodd"/><path fill="#0b5394" d="m347.69028 95.115486l0 191.02362l-15.370056 0l0 -191.02362z" fill-rule="evenodd"/><path fill="#000000" fill-opacity="0.0" d="m28.624672 53.52231l144.15747 0l0 37.07087l-144.15747 0z" fill-rule="evenodd"/><path fill="#0b5394" d="m87.01591 80.187744l0 37.75l-11.625 0l0 -91.375l22.25 0q16.625 0 24.5625 6.437498q7.9374924 6.4375 7.9374924 19.5q0 5.4375 -1.53125 9.5q-1.5312424 4.0625 -4.0624924 6.96875q-2.53125 2.90625 -5.78125 4.84375q-3.25 1.9375 -6.6875 3.1875l24.874992 40.9375l-13.687492 0l-21.9375 -37.75l-14.3125 0zm0 -9.875l10.25 0q5.625 0 9.5625 -1.09375q3.9375 -1.09375 6.46875 -3.25q2.53125 -2.15625 3.6875 -5.375q1.15625 -3.21875 1.15625 -7.53125q0 -4.5 -1.28125 -7.625q-1.28125 -3.125 -3.875 -5.125q-2.59375 -2.0 -6.5625 -2.90625q-3.96875 -0.90625 -9.40625 -0.90625l-10.0 0l0 33.8125z" fill-rule="nonzero"/><path fill="#000000" fill-opacity="0.0" d="m188.16273 53.52231l144.15749 0l0 37.07087l-144.15749 0z" fill-rule="evenodd"/><path fill="#0b5394" d="m264.9602 69.687744l30.25 0l0 44.8125q-3.4375 1.125 -6.9375 2.0q-3.5 0.875 -7.1875 1.46875q-3.6875 0.59375 -7.75 0.90625q-4.0625 0.3125 -8.75 0.3125q-9.812485 0 -17.374985 -3.28125q-7.5625 -3.28125 -12.75 -9.375q-5.1875 -6.09375 -7.875 -14.8125q-2.6875 -8.71875 -2.6875 -19.59375q0 -10.75 2.96875 -19.4375q2.96875 -8.6875 8.65625 -14.78125q5.6875 -6.093748 14.03125 -9.374998q8.343735 -3.28125 19.031235 -3.28125q6.9375 0 13.3125 1.375q6.375 1.375 11.875 4.0l-4.5 10.124998q-2.25 -1.0625 -4.84375 -2.0q-2.59375 -0.9375 -5.34375 -1.65625q-2.75 -0.71875 -5.65625 -1.15625q-2.90625 -0.4375 -5.78125 -0.4375q-7.625 0 -13.499985 2.53125q-5.875 2.53125 -9.84375 7.28125q-3.96875 4.75 -6.03125 11.5625q-2.0625 6.8125 -2.0625 15.375q0 8.125 1.71875 14.875q1.71875 6.75 5.46875 11.625q3.75 4.875 9.6875 7.5625q5.9374847 2.6875 14.312485 2.6875q2.75 0 5.03125 -0.15625q2.28125 -0.15625 4.21875 -0.40625q1.9375 -0.25 3.65625 -0.59375q1.71875 -0.34375 3.34375 -0.65625l0 -27.25l-18.6875 0l0 -10.25z" fill-rule="nonzero"/><path fill="#000000" fill-opacity="0.0" d="m347.70078 53.52231l144.1575 0l0 37.07087l-144.1575 0z" fill-rule="evenodd"/><path fill="#0b5394" d="m430.74826 35.500244q-6.6875 0 -12.125 2.53125q-5.4375 2.53125 -9.2812195 7.28125q-3.84375 4.75 -5.9375 11.5625q-2.09375 6.8125 -2.09375 15.375q0 8.8125 1.84375 15.65625q1.84375 6.84375 5.53125 11.53125q3.6874695 4.6875 9.1874695 7.125q5.5 2.4375 12.875 2.4375q5.5625 0 10.5625 -1.09375q5.0 -1.09375 9.875 -2.53125l0 10.125q-2.4375 0.9375 -4.875 1.65625q-2.4375 0.71875 -5.09375 1.15625q-2.65625 0.4375 -5.6875 0.65625q-3.03125 0.21875 -6.71875 0.21875q-10.25 0 -17.74997 -3.375q-7.5 -3.375 -12.40625 -9.5625q-4.90625 -6.1875 -7.28125 -14.875q-2.375 -8.6875 -2.375 -19.25q0 -10.375 2.71875 -19.0q2.71875 -8.625 8.0 -14.8125q5.28125 -6.1875 13.0937195 -9.624998q7.8125 -3.4375 17.9375 -3.4375q6.75 0 12.875 1.375q6.125 1.375 11.0625 4.0l-4.875 9.749998q-3.9375 -2.0 -8.5625 -3.4375q-4.625 -1.4375 -10.5 -1.4375z" fill-rule="nonzero"/></g></svg>